<svg fill="none" height="100%" width="100%" viewBox="0 0 300 300" xmlns:xlink="http://www.w3.org/1999/xlink" xmlns="http://www.w3.org/2000/svg"><defs><clipPath id="i0"><path d="M0.25,0.25C0.25,0.25,0.25,23.642,0.25,23.642C0.25,23.642,-0.268,23.635,-0.268,23.635C-0.268,23.635,-0.268,0.243,-0.268,0.243C-0.268,0.243,0.25,0.25,0.25,0.25Z"><animate repeatCount="indefinite" begin="0s" keySplines="0.172 0 0 1; 0 0 1 1" calcMode="spline" fill="freeze" dur="5s" keyTimes="0; 0.133333; 1" values="M0.25,0.25C0.25,0.25,0.25,23.642,0.25,23.642C0.25,23.642,-0.268,23.635,-0.268,23.635C-0.268,23.635,-0.268,0.243,-0.268,0.243C-0.268,0.243,0.25,0.25,0.25,0.25Z; M0.25,0.25C0.25,0.25,0.25,23.642,0.25,23.642C0.25,23.642,48.607,23.645,48.607,23.645C48.607,23.645,48.607,0.253,48.607,0.253C48.607,0.253,0.25,0.25,0.25,0.25Z; M0.25,0.25C0.25,0.25,0.25,23.642,0.25,23.642C0.25,23.642,48.607,23.645,48.607,23.645C48.607,23.645,48.607,0.253,48.607,0.253C48.607,0.253,0.25,0.25,0.25,0.25Z" attributeName="d" /></path></clipPath><clipPath id="i1"><path d="M0.25,0.25C0.25,0.25,0.25,29.492,0.25,29.492C0.25,29.492,0.107,29.385,0.107,29.385C0.107,29.385,0.107,0.143,0.107,0.143C0.107,0.143,0.25,0.25,0.25,0.25Z"><animate repeatCount="indefinite" begin="0s" keySplines="0.172 0 0 1; 0 0 1 1" calcMode="spline" fill="freeze" dur="5s" keyTimes="0; 0.133333; 1" values="M0.25,0.25C0.25,0.25,0.25,29.492,0.25,29.492C0.25,29.492,0.107,29.385,0.107,29.385C0.107,29.385,0.107,0.143,0.107,0.143C0.107,0.143,0.25,0.25,0.25,0.25Z; M0.25,0.25C0.25,0.25,0.25,29.492,0.25,29.492C0.25,29.492,78.357,29.373,78.357,29.373C78.357,29.373,78.357,0.131,78.357,0.131C78.357,0.131,0.25,0.25,0.25,0.25Z; M0.25,0.25C0.25,0.25,0.25,29.492,0.25,29.492C0.25,29.492,78.357,29.373,78.357,29.373C78.357,29.373,78.357,0.131,78.357,0.131C78.357,0.131,0.25,0.25,0.25,0.25Z" attributeName="d" /></path></clipPath><clipPath id="i2"><path d="M48,0.184C48,0.184,48,23.575,48,23.575C48,23.575,47.857,23.693,47.857,23.693C47.857,23.693,47.857,0.302,47.857,0.302C47.857,0.302,48,0.184,48,0.184Z"><animate repeatCount="indefinite" begin="0s" keySplines="0.172 0 0 1; 0 0 1 1" calcMode="spline" fill="freeze" dur="5s" keyTimes="0; 0.133333; 1" values="M48,0.184C48,0.184,48,23.575,48,23.575C48,23.575,47.857,23.693,47.857,23.693C47.857,23.693,47.857,0.302,47.857,0.302C47.857,0.302,48,0.184,48,0.184Z; M48,0.184C48,0.184,48,23.575,48,23.575C48,23.575,78.107,23.575,78.107,23.575C78.107,23.575,78.107,0.184,78.107,0.184C78.107,0.184,48,0.184,48,0.184Z; M48,0.184C48,0.184,48,23.575,48,23.575C48,23.575,78.107,23.575,78.107,23.575C78.107,23.575,78.107,0.184,78.107,0.184C78.107,0.184,48,0.184,48,0.184Z" attributeName="d" /></path></clipPath><clipPath id="i3"><path d="M0.25,0.25C0.25,0.25,0.25,23.642,0.25,23.642C0.25,23.642,-0.268,23.635,-0.268,23.635C-0.268,23.635,-0.268,0.243,-0.268,0.243C-0.268,0.243,0.25,0.25,0.25,0.25Z"><animate repeatCount="indefinite" begin="0s" keySplines="0.172 0 0 1; 0 0 1 1" calcMode="spline" fill="freeze" dur="5s" keyTimes="0; 0.133333; 1" values="M0.25,0.25C0.25,0.25,0.25,23.642,0.25,23.642C0.25,23.642,-0.268,23.635,-0.268,23.635C-0.268,23.635,-0.268,0.243,-0.268,0.243C-0.268,0.243,0.25,0.25,0.25,0.25Z; M0.25,0.25C0.25,0.25,0.25,23.642,0.25,23.642C0.25,23.642,48.607,23.645,48.607,23.645C48.607,23.645,48.607,0.253,48.607,0.253C48.607,0.253,0.25,0.25,0.25,0.25Z; M0.25,0.25C0.25,0.25,0.25,23.642,0.25,23.642C0.25,23.642,48.607,23.645,48.607,23.645C48.607,23.645,48.607,0.253,48.607,0.253C48.607,0.253,0.25,0.25,0.25,0.25Z" attributeName="d" /></path></clipPath><clipPath id="i4"><path d="M0.25,0.25C0.25,0.25,0.25,29.492,0.25,29.492C0.25,29.492,0.107,29.385,0.107,29.385C0.107,29.385,0.107,0.143,0.107,0.143C0.107,0.143,0.25,0.25,0.25,0.25Z"><animate repeatCount="indefinite" begin="0s" keySplines="0.172 0 0 1; 0 0 1 1" calcMode="spline" fill="freeze" dur="5s" keyTimes="0; 0.133333; 1" values="M0.25,0.25C0.25,0.25,0.25,29.492,0.25,29.492C0.25,29.492,0.107,29.385,0.107,29.385C0.107,29.385,0.107,0.143,0.107,0.143C0.107,0.143,0.25,0.25,0.25,0.25Z; M0.25,0.25C0.25,0.25,0.25,29.492,0.25,29.492C0.25,29.492,78.357,29.373,78.357,29.373C78.357,29.373,78.357,0.131,78.357,0.131C78.357,0.131,0.25,0.25,0.25,0.25Z; M0.25,0.25C0.25,0.25,0.25,29.492,0.25,29.492C0.25,29.492,78.357,29.373,78.357,29.373C78.357,29.373,78.357,0.131,78.357,0.131C78.357,0.131,0.25,0.25,0.25,0.25Z" attributeName="d" /></path></clipPath><clipPath id="i5"><path d="M48,0.184C48,0.184,48,23.575,48,23.575C48,23.575,47.857,23.693,47.857,23.693C47.857,23.693,47.857,0.302,47.857,0.302C47.857,0.302,48,0.184,48,0.184Z"><animate repeatCount="indefinite" begin="0s" keySplines="0.172 0 0 1; 0 0 1 1" calcMode="spline" fill="freeze" dur="5s" keyTimes="0; 0.133333; 1" values="M48,0.184C48,0.184,48,23.575,48,23.575C48,23.575,47.857,23.693,47.857,23.693C47.857,23.693,47.857,0.302,47.857,0.302C47.857,0.302,48,0.184,48,0.184Z; M48,0.184C48,0.184,48,23.575,48,23.575C48,23.575,78.107,23.575,78.107,23.575C78.107,23.575,78.107,0.184,78.107,0.184C78.107,0.184,48,0.184,48,0.184Z; M48,0.184C48,0.184,48,23.575,48,23.575C48,23.575,78.107,23.575,78.107,23.575C78.107,23.575,78.107,0.184,78.107,0.184C78.107,0.184,48,0.184,48,0.184Z" attributeName="d" /></path></clipPath><clipPath id="i6"><path d="M0.25,0.25C0.25,0.25,0.25,23.642,0.25,23.642C0.25,23.642,-0.268,23.635,-0.268,23.635C-0.268,23.635,-0.268,0.243,-0.268,0.243C-0.268,0.243,0.25,0.25,0.25,0.25Z"><animate repeatCount="indefinite" begin="0s" keySplines="0.172 0 0 1; 0 0 1 1" calcMode="spline" fill="freeze" dur="5s" keyTimes="0; 0.133333; 1" values="M0.25,0.25C0.25,0.25,0.25,23.642,0.25,23.642C0.25,23.642,-0.268,23.635,-0.268,23.635C-0.268,23.635,-0.268,0.243,-0.268,0.243C-0.268,0.243,0.25,0.25,0.25,0.25Z; M0.25,0.25C0.25,0.25,0.25,23.642,0.25,23.642C0.25,23.642,48.607,23.645,48.607,23.645C48.607,23.645,48.607,0.253,48.607,0.253C48.607,0.253,0.25,0.25,0.25,0.25Z; M0.25,0.25C0.25,0.25,0.25,23.642,0.25,23.642C0.25,23.642,48.607,23.645,48.607,23.645C48.607,23.645,48.607,0.253,48.607,0.253C48.607,0.253,0.25,0.25,0.25,0.25Z" attributeName="d" /></path></clipPath><clipPath id="i7"><path d="M0.25,0.25C0.25,0.25,0.25,29.492,0.25,29.492C0.25,29.492,0.107,29.385,0.107,29.385C0.107,29.385,0.107,0.143,0.107,0.143C0.107,0.143,0.25,0.25,0.25,0.25Z"><animate repeatCount="indefinite" begin="0s" keySplines="0.172 0 0 1; 0 0 1 1" calcMode="spline" fill="freeze" dur="5s" keyTimes="0; 0.133333; 1" values="M0.25,0.25C0.25,0.25,0.25,29.492,0.25,29.492C0.25,29.492,0.107,29.385,0.107,29.385C0.107,29.385,0.107,0.143,0.107,0.143C0.107,0.143,0.25,0.25,0.25,0.25Z; M0.25,0.25C0.25,0.25,0.25,29.492,0.25,29.492C0.25,29.492,78.357,29.373,78.357,29.373C78.357,29.373,78.357,0.131,78.357,0.131C78.357,0.131,0.25,0.25,0.25,0.25Z; M0.25,0.25C0.25,0.25,0.25,29.492,0.25,29.492C0.25,29.492,78.357,29.373,78.357,29.373C78.357,29.373,78.357,0.131,78.357,0.131C78.357,0.131,0.25,0.25,0.25,0.25Z" attributeName="d" /></path></clipPath><clipPath id="i8"><path d="M48,0.184C48,0.184,48,23.575,48,23.575C48,23.575,47.857,23.693,47.857,23.693C47.857,23.693,47.857,0.302,47.857,0.302C47.857,0.302,48,0.184,48,0.184Z"><animate repeatCount="indefinite" begin="0s" keySplines="0.172 0 0 1; 0 0 1 1" calcMode="spline" fill="freeze" dur="5s" keyTimes="0; 0.133333; 1" values="M48,0.184C48,0.184,48,23.575,48,23.575C48,23.575,47.857,23.693,47.857,23.693C47.857,23.693,47.857,0.302,47.857,0.302C47.857,0.302,48,0.184,48,0.184Z; M48,0.184C48,0.184,48,23.575,48,23.575C48,23.575,78.107,23.575,78.107,23.575C78.107,23.575,78.107,0.184,78.107,0.184C78.107,0.184,48,0.184,48,0.184Z; M48,0.184C48,0.184,48,23.575,48,23.575C48,23.575,78.107,23.575,78.107,23.575C78.107,23.575,78.107,0.184,78.107,0.184C78.107,0.184,48,0.184,48,0.184Z" attributeName="d" /></path></clipPath><clipPath id="i9"><path d="M0.25,0.25C0.25,0.25,0.25,23.642,0.25,23.642C0.25,23.642,-0.268,23.635,-0.268,23.635C-0.268,23.635,-0.268,0.243,-0.268,0.243C-0.268,0.243,0.25,0.25,0.25,0.25Z"><animate repeatCount="indefinite" begin="0s" keySplines="0.172 0 0 1; 0 0 1 1" calcMode="spline" fill="freeze" dur="5s" keyTimes="0; 0.046667; 1" values="M0.25,0.25C0.25,0.25,0.25,23.642,0.25,23.642C0.25,23.642,-0.268,23.635,-0.268,23.635C-0.268,23.635,-0.268,0.243,-0.268,0.243C-0.268,0.243,0.25,0.25,0.25,0.25Z; M0.25,0.25C0.25,0.25,0.25,23.642,0.25,23.642C0.25,23.642,48.607,23.645,48.607,23.645C48.607,23.645,48.607,0.253,48.607,0.253C48.607,0.253,0.25,0.25,0.25,0.25Z; M0.25,0.25C0.25,0.25,0.25,23.642,0.25,23.642C0.25,23.642,48.607,23.645,48.607,23.645C48.607,23.645,48.607,0.253,48.607,0.253C48.607,0.253,0.25,0.25,0.25,0.25Z" attributeName="d" /></path></clipPath><clipPath id="i10"><path d="M0.25,0.25C0.25,0.25,0.25,29.492,0.25,29.492C0.25,29.492,0.107,29.385,0.107,29.385C0.107,29.385,0.107,0.143,0.107,0.143C0.107,0.143,0.25,0.25,0.25,0.25Z"><animate repeatCount="indefinite" begin="0s" keySplines="0.172 0 0 1; 0 0 1 1" calcMode="spline" fill="freeze" dur="5s" keyTimes="0; 0.113333; 1" values="M0.25,0.25C0.25,0.25,0.25,29.492,0.25,29.492C0.25,29.492,0.107,29.385,0.107,29.385C0.107,29.385,0.107,0.143,0.107,0.143C0.107,0.143,0.25,0.25,0.25,0.25Z; M0.25,0.25C0.25,0.25,0.25,29.492,0.25,29.492C0.25,29.492,78.357,29.373,78.357,29.373C78.357,29.373,78.357,0.131,78.357,0.131C78.357,0.131,0.25,0.25,0.25,0.25Z; M0.25,0.25C0.25,0.25,0.25,29.492,0.25,29.492C0.25,29.492,78.357,29.373,78.357,29.373C78.357,29.373,78.357,0.131,78.357,0.131C78.357,0.131,0.25,0.25,0.25,0.25Z" attributeName="d" /></path></clipPath><clipPath id="i11"><path d="M48,0.184C48,0.184,48,23.575,48,23.575C48,23.575,47.857,23.693,47.857,23.693C47.857,23.693,47.857,0.302,47.857,0.302C47.857,0.302,48,0.184,48,0.184Z"><animate repeatCount="indefinite" begin="0s" keySplines="0.172 0 0 1; 0 0 1 1" calcMode="spline" fill="freeze" dur="5s" keyTimes="0; 0.113333; 1" values="M48,0.184C48,0.184,48,23.575,48,23.575C48,23.575,47.857,23.693,47.857,23.693C47.857,23.693,47.857,0.302,47.857,0.302C47.857,0.302,48,0.184,48,0.184Z; M48,0.184C48,0.184,48,23.575,48,23.575C48,23.575,78.107,23.575,78.107,23.575C78.107,23.575,78.107,0.184,78.107,0.184C78.107,0.184,48,0.184,48,0.184Z; M48,0.184C48,0.184,48,23.575,48,23.575C48,23.575,78.107,23.575,78.107,23.575C78.107,23.575,78.107,0.184,78.107,0.184C78.107,0.184,48,0.184,48,0.184Z" attributeName="d" /></path></clipPath></defs><g id="i12"><g transform="translate(253.453,124.531)"><animateTransform repeatCount="indefinite" type="translate" attributeName="transform" dur="5s" begin="0s" calcMode="spline" values="253.453 124.531; 253.453 124.531; 154.484 144.18; 58.092 163.252; 58.092 163.252" keyTimes="0; 0.013333; 0.146667; 0.28; 1" keySplines="0 0 1 1; 0.221 0 0 1; 0.729 0 0 1; 0 0 1 1" fill="freeze" /><g transform="scale(1,1) translate(-33.579,-67.432)"><g opacity="0" visibility="visible" id="i13"><animate repeatCount="indefinite" begin="0s" calcMode="discrete" dur="5s" values="visible; hidden; hidden" keyTimes="0; 0.28; 1" attributeName="visibility" /><animate repeatCount="indefinite" attributeName="opacity" dur="5s" begin="0s" fill="freeze" values="0; 1; 1; 0; 0" keyTimes="0; 0.02; 0.193333; 0.213333; 1" keySplines="0 0 1 1; 0 0 1 1; 0 0 1 1; 0 0 1 1" calcMode="spline" /><g transform="translate(129.073,70.877) scale(1,1) translate(-57.428,-11.946)"><g clip-path="url(#i0)" id="i14"><g id="i15" transform="matrix(1,0,0,1,57.428,11.946)"><path fill="#befec0" d="M57.179,-8.741C57.179,-8.741,-57.179,11.696,-57.179,11.696C-57.179,11.696,-57.179,8.741,-57.179,8.741C-57.179,8.741,57.179,-11.696,57.179,-11.696C57.179,-11.696,57.179,-8.741,57.179,-8.741Z" /></g></g></g></g></g></g></g><g id="i12"><g transform="translate(253.453,124.531)"><animateTransform repeatCount="indefinite" type="translate" attributeName="transform" dur="5s" begin="0s" calcMode="spline" values="253.453 124.531; 253.453 124.531; 154.484 144.18; 58.092 163.252; 58.092 163.252" keyTimes="0; 0.013333; 0.146667; 0.28; 1" keySplines="0 0 1 1; 0.221 0 0 1; 0.729 0 0 1; 0 0 1 1" fill="freeze" /><g transform="scale(1,1) translate(-33.579,-67.432)"><g opacity="0" visibility="visible" id="i16"><animate repeatCount="indefinite" begin="0s" calcMode="discrete" dur="5s" values="visible; hidden; hidden" keyTimes="0; 0.28; 1" attributeName="visibility" /><animate repeatCount="indefinite" attributeName="opacity" dur="5s" begin="0s" fill="freeze" values="0; 1; 1; 0; 0" keyTimes="0; 0.02; 0.193333; 0.213333; 1" keySplines="0 0 1 1; 0 0 1 1; 0 0 1 1; 0 0 1 1" calcMode="spline" /><g transform="translate(129.073,41.572) scale(1,1) translate(-57.428,-14.871)"><g clip-path="url(#i1)" id="i17"><g id="i15" transform="matrix(1,0,0,1,57.428,14.871)"><path fill="#befec0" d="M57.179,-5.816C57.179,-5.816,-57.179,14.621,-57.179,14.621C-57.179,14.621,-57.179,5.815,-57.179,5.815C-57.179,5.815,57.179,-14.621,57.179,-14.621C57.179,-14.621,57.179,-5.816,57.179,-5.816Z" /></g></g></g></g></g></g></g><g id="i12"><g transform="translate(253.453,124.531)"><animateTransform repeatCount="indefinite" type="translate" attributeName="transform" dur="5s" begin="0s" calcMode="spline" values="253.453 124.531; 253.453 124.531; 154.484 144.18; 58.092 163.252; 58.092 163.252" keyTimes="0; 0.013333; 0.146667; 0.28; 1" keySplines="0 0 1 1; 0.221 0 0 1; 0.729 0 0 1; 0 0 1 1" fill="freeze" /><g transform="scale(1,1) translate(-33.579,-67.432)"><g opacity="0" visibility="visible" id="i18"><animate repeatCount="indefinite" begin="0s" calcMode="discrete" dur="5s" values="visible; hidden; hidden" keyTimes="0; 0.28; 1" attributeName="visibility" /><animate repeatCount="indefinite" attributeName="opacity" dur="5s" begin="0s" fill="freeze" values="0; 1; 1; 0; 0" keyTimes="0; 0.02; 0.193333; 0.213333; 1" keySplines="0 0 1 1; 0 0 1 1; 0 0 1 1; 0 0 1 1" calcMode="spline" /><g transform="translate(129.073,31.309) scale(1,1) translate(-57.428,-11.945)"><g clip-path="url(#i2)" id="i19"><g id="i15" transform="matrix(1,0,0,1,57.428,11.946)"><path fill="#befec0" d="M57.179,-8.742C57.179,-8.742,-57.179,11.696,-57.179,11.696C-57.179,11.696,-57.179,8.741,-57.179,8.741C-57.179,8.741,57.179,-11.696,57.179,-11.696C57.179,-11.696,57.179,-8.742,57.179,-8.742Z" /></g></g></g></g></g></g></g><g opacity="0" visibility="visible" id="i20"><animate repeatCount="indefinite" begin="0s" calcMode="discrete" dur="5s" values="visible; hidden; hidden" keyTimes="0; 0.28; 1" attributeName="visibility" /><animate repeatCount="indefinite" attributeName="opacity" dur="5s" begin="0s" fill="freeze" values="0; 1; 1; 0; 0" keyTimes="0; 0.02; 0.193333; 0.213333; 1" keySplines="0 0 1 1; 0 0 1 1; 0 0 1 1; 0 0 1 1" calcMode="spline" /><g transform="translate(242.453,134.531)"><animateTransform repeatCount="indefinite" type="translate" attributeName="transform" dur="5s" begin="0s" calcMode="spline" values="242.453 134.531; 143.484 154.18; 47.092 173.252; 47.092 173.252" keyTimes="0; 0.133333; 0.266667; 1" keySplines="0.221 0 0 1; 0.729 0 0 1; 0 0 1 1" fill="freeze" /><g transform="scale(1,1) translate(-33.579,-67.432)"><g id="i15" transform="matrix(1,0,0,1,33.578,67.432)"><path fill="#b6fcb8" d="M0.075,65.15C-11.314,67.181,-19.733,65.544,-25.171,60.224C-30.609,54.908,-33.329,46.523,-33.329,35.07C-33.329,35.07,-33.329,30.545,-33.329,30.545C-33.329,30.545,-11.47,26.641,-11.47,26.641C-11.47,26.641,-11.47,30.17,-11.47,30.17C-11.369,36.597,-10.507,41.197,-8.892,43.971C-7.273,46.754,-4.235,47.744,0.23,46.949C2.179,46.601,3.86,45.969,5.273,45.053C6.682,44.137,7.797,43.08,8.618,41.883C9.443,40.694,10.072,39.146,10.508,37.254C10.944,35.361,11.238,33.482,11.389,31.616C11.545,29.744,11.618,27.48,11.618,24.824C11.618,18.078,10.521,13.13,8.314,10.001C6.104,6.865,2.254,5.634,-3.235,6.31C-3.441,6.344,-4.005,6.432,-4.927,6.574C-5.85,6.713,-6.387,6.797,-6.546,6.824C-6.546,6.824,-6.546,-11.432,-6.546,-11.432C-4.901,-11.723,-3.927,-11.919,-3.616,-12.027C2.024,-13.189,5.978,-15.359,8.232,-18.553C10.493,-21.74,11.618,-26.532,11.618,-32.919C11.618,-38.542,10.76,-42.612,9.04,-45.113C7.323,-47.621,4.285,-48.485,-0.078,-47.708C-1.923,-47.376,-3.532,-46.783,-4.887,-45.928C-6.249,-45.073,-7.341,-44.058,-8.158,-42.889C-8.98,-41.719,-9.635,-40.286,-10.122,-38.59C-10.612,-36.893,-10.943,-35.183,-11.122,-33.466C-11.301,-31.746,-11.42,-29.757,-11.47,-27.499C-11.47,-27.499,-11.47,-23.206,-11.47,-23.206C-11.47,-23.206,-33.329,-19.303,-33.329,-19.303C-33.329,-19.303,-33.329,-25.208,-33.329,-25.208C-33.329,-36.046,-30.443,-44.958,-24.671,-51.947C-18.898,-58.932,-10.7,-63.372,-0.078,-65.268C10.645,-67.182,18.896,-65.742,24.667,-60.943C30.44,-56.144,33.329,-48.349,33.329,-37.562C33.329,-30.354,31.761,-24.064,28.632,-18.704C25.499,-13.338,21.346,-9.453,16.161,-7.046C21.654,-6.134,25.888,-3.375,28.866,1.234C31.839,5.838,33.329,12.309,33.329,20.643C33.329,32.758,30.657,42.694,25.32,50.447C19.984,58.2,11.573,63.099,0.075,65.15Z" /></g></g></g></g><g opacity="0" visibility="visible" id="i21"><animate repeatCount="indefinite" begin="0s" calcMode="discrete" dur="5s" values="visible; hidden; hidden" keyTimes="0; 0.28; 1" attributeName="visibility" /><animate repeatCount="indefinite" attributeName="opacity" dur="5s" begin="0s" fill="freeze" values="0; 1; 1; 0; 0" keyTimes="0; 0.02; 0.193333; 0.213333; 1" keySplines="0 0 1 1; 0 0 1 1; 0 0 1 1; 0 0 1 1" calcMode="spline" /><g transform="translate(247.453,129.531)"><animateTransform repeatCount="indefinite" type="translate" attributeName="transform" dur="5s" begin="0s" calcMode="spline" values="247.453 129.531; 247.453 129.531; 148.484 149.18; 52.092 168.252; 52.092 168.252" keyTimes="0; 0.006667; 0.14; 0.273333; 1" keySplines="0 0 1 1; 0.221 0 0 1; 0.729 0 0 1; 0 0 1 1" fill="freeze" /><g transform="scale(1,1) translate(-33.579,-67.432)"><g id="i15" transform="matrix(1,0,0,1,33.578,67.432)"><path fill="#befec0" d="M0.075,65.15C-11.314,67.181,-19.733,65.544,-25.171,60.224C-30.609,54.908,-33.329,46.523,-33.329,35.07C-33.329,35.07,-33.329,30.545,-33.329,30.545C-33.329,30.545,-11.47,26.641,-11.47,26.641C-11.47,26.641,-11.47,30.17,-11.47,30.17C-11.369,36.597,-10.507,41.197,-8.892,43.971C-7.273,46.754,-4.235,47.744,0.23,46.949C2.179,46.601,3.86,45.969,5.273,45.053C6.682,44.137,7.797,43.08,8.618,41.883C9.443,40.694,10.072,39.146,10.508,37.254C10.944,35.361,11.238,33.482,11.389,31.616C11.545,29.744,11.618,27.48,11.618,24.824C11.618,18.078,10.521,13.13,8.314,10.001C6.104,6.865,2.254,5.634,-3.235,6.31C-3.441,6.344,-4.005,6.432,-4.927,6.574C-5.85,6.713,-6.387,6.797,-6.546,6.824C-6.546,6.824,-6.546,-11.432,-6.546,-11.432C-4.901,-11.723,-3.927,-11.919,-3.616,-12.027C2.024,-13.189,5.978,-15.359,8.232,-18.553C10.493,-21.74,11.618,-26.532,11.618,-32.919C11.618,-38.542,10.76,-42.612,9.04,-45.113C7.323,-47.621,4.285,-48.485,-0.078,-47.708C-1.923,-47.376,-3.532,-46.783,-4.887,-45.928C-6.249,-45.073,-7.341,-44.058,-8.158,-42.889C-8.98,-41.719,-9.635,-40.286,-10.122,-38.59C-10.612,-36.893,-10.943,-35.183,-11.122,-33.466C-11.301,-31.746,-11.42,-29.757,-11.47,-27.499C-11.47,-27.499,-11.47,-23.206,-11.47,-23.206C-11.47,-23.206,-33.329,-19.303,-33.329,-19.303C-33.329,-19.303,-33.329,-25.208,-33.329,-25.208C-33.329,-36.046,-30.443,-44.958,-24.671,-51.947C-18.898,-58.932,-10.7,-63.372,-0.078,-65.268C10.645,-67.182,18.896,-65.742,24.667,-60.943C30.44,-56.144,33.329,-48.349,33.329,-37.562C33.329,-30.354,31.761,-24.064,28.632,-18.704C25.499,-13.338,21.346,-9.453,16.161,-7.046C21.654,-6.134,25.888,-3.375,28.866,1.234C31.839,5.838,33.329,12.309,33.329,20.643C33.329,32.758,30.657,42.694,25.32,50.447C19.984,58.2,11.573,63.099,0.075,65.15Z" /></g></g></g></g><g opacity="0" visibility="visible" id="i12"><animate repeatCount="indefinite" begin="0s" calcMode="discrete" dur="5s" values="visible; hidden; hidden" keyTimes="0; 0.28; 1" attributeName="visibility" /><animate repeatCount="indefinite" attributeName="opacity" dur="5s" begin="0s" fill="freeze" values="0; 1; 1; 0; 0" keyTimes="0; 0.02; 0.193333; 0.213333; 1" keySplines="0 0 1 1; 0 0 1 1; 0 0 1 1; 0 0 1 1" calcMode="spline" /><g transform="translate(253.453,124.531)"><animateTransform repeatCount="indefinite" type="translate" attributeName="transform" dur="5s" begin="0s" calcMode="spline" values="253.453 124.531; 253.453 124.531; 154.484 144.18; 58.092 163.252; 58.092 163.252" keyTimes="0; 0.013333; 0.146667; 0.28; 1" keySplines="0 0 1 1; 0.221 0 0 1; 0.729 0 0 1; 0 0 1 1" fill="freeze" /><g transform="scale(1,1) translate(-33.579,-67.432)"><g id="i15" transform="matrix(1,0,0,1,33.578,67.432)"><path fill="#56fb5b" d="M0.075,65.15C-11.314,67.181,-19.733,65.544,-25.171,60.224C-30.609,54.908,-33.329,46.523,-33.329,35.07C-33.329,35.07,-33.329,30.545,-33.329,30.545C-33.329,30.545,-11.47,26.641,-11.47,26.641C-11.47,26.641,-11.47,30.17,-11.47,30.17C-11.369,36.597,-10.507,41.197,-8.892,43.971C-7.273,46.754,-4.235,47.744,0.23,46.949C2.179,46.601,3.86,45.969,5.273,45.053C6.682,44.137,7.797,43.08,8.618,41.883C9.443,40.694,10.072,39.146,10.508,37.254C10.944,35.361,11.238,33.482,11.389,31.616C11.545,29.744,11.618,27.48,11.618,24.824C11.618,18.078,10.521,13.13,8.314,10.001C6.104,6.865,2.254,5.634,-3.235,6.31C-3.441,6.344,-4.005,6.432,-4.927,6.574C-5.85,6.713,-6.387,6.797,-6.546,6.824C-6.546,6.824,-6.546,-11.432,-6.546,-11.432C-4.901,-11.723,-3.927,-11.919,-3.616,-12.027C2.024,-13.189,5.978,-15.359,8.232,-18.553C10.493,-21.74,11.618,-26.532,11.618,-32.919C11.618,-38.542,10.76,-42.612,9.04,-45.113C7.323,-47.621,4.285,-48.485,-0.078,-47.708C-1.923,-47.376,-3.532,-46.783,-4.887,-45.928C-6.249,-45.073,-7.341,-44.058,-8.158,-42.889C-8.98,-41.719,-9.635,-40.286,-10.122,-38.59C-10.612,-36.893,-10.943,-35.183,-11.122,-33.466C-11.301,-31.746,-11.42,-29.757,-11.47,-27.499C-11.47,-27.499,-11.47,-23.206,-11.47,-23.206C-11.47,-23.206,-33.329,-19.303,-33.329,-19.303C-33.329,-19.303,-33.329,-25.208,-33.329,-25.208C-33.329,-36.046,-30.443,-44.958,-24.671,-51.947C-18.898,-58.932,-10.7,-63.372,-0.078,-65.268C10.645,-67.182,18.896,-65.742,24.667,-60.943C30.44,-56.144,33.329,-48.349,33.329,-37.562C33.329,-30.354,31.761,-24.064,28.632,-18.704C25.499,-13.338,21.346,-9.453,16.161,-7.046C21.654,-6.134,25.888,-3.375,28.866,1.234C31.839,5.838,33.329,12.309,33.329,20.643C33.329,32.758,30.657,42.694,25.32,50.447C19.984,58.2,11.573,63.099,0.075,65.15Z" /></g></g></g></g><g id="i22"><g transform="translate(253.453,124.531)"><animateTransform repeatCount="indefinite" type="translate" attributeName="transform" dur="5s" begin="0s" calcMode="spline" values="253.453 124.531; 253.453 124.531; 155 145.711; 66.34 165.814; 66.34 165.814" keyTimes="0; 0.213333; 0.346667; 0.48; 1" keySplines="0 0 1 1; 0.221 0 0 1; 0.719 0 0 1; 0 0 1 1" fill="freeze" /><g transform="scale(1,1) translate(-32.785,-66.886)"><g opacity="0" visibility="hidden" id="i23"><animate repeatCount="indefinite" begin="0s" calcMode="discrete" dur="5s" values="hidden; visible; hidden; hidden" keyTimes="0; 0.2; 0.487; 1" attributeName="visibility" /><animate repeatCount="indefinite" attributeName="opacity" dur="5s" begin="0s" fill="freeze" values="0; 0; 1; 1; 0; 0" keyTimes="0; 0.2; 0.22; 0.393333; 0.413333; 1" keySplines="0 0 1 1; 0 0 1 1; 0 0 1 1; 0 0 1 1; 0 0 1 1" calcMode="spline" /><g transform="translate(127.68,68.819) scale(1,1) translate(-57.428,-11.946)"><g clip-path="url(#i3)" id="i24"><g id="i15" transform="matrix(1,0,0,1,57.428,11.946)"><path fill="#befec0" d="M57.179,-8.741C57.179,-8.741,-57.179,11.696,-57.179,11.696C-57.179,11.696,-57.179,8.741,-57.179,8.741C-57.179,8.741,57.179,-11.696,57.179,-11.696C57.179,-11.696,57.179,-8.741,57.179,-8.741Z" /></g></g></g></g></g></g></g><g id="i22"><g transform="translate(253.453,124.531)"><animateTransform repeatCount="indefinite" type="translate" attributeName="transform" dur="5s" begin="0s" calcMode="spline" values="253.453 124.531; 253.453 124.531; 155 145.711; 66.34 165.814; 66.34 165.814" keyTimes="0; 0.213333; 0.346667; 0.48; 1" keySplines="0 0 1 1; 0.221 0 0 1; 0.719 0 0 1; 0 0 1 1" fill="freeze" /><g transform="scale(1,1) translate(-32.785,-66.886)"><g opacity="0" visibility="hidden" id="i25"><animate repeatCount="indefinite" begin="0s" calcMode="discrete" dur="5s" values="hidden; visible; hidden; hidden" keyTimes="0; 0.2; 0.487; 1" attributeName="visibility" /><animate repeatCount="indefinite" attributeName="opacity" dur="5s" begin="0s" fill="freeze" values="0; 0; 1; 1; 0; 0" keyTimes="0; 0.2; 0.22; 0.393333; 0.413333; 1" keySplines="0 0 1 1; 0 0 1 1; 0 0 1 1; 0 0 1 1; 0 0 1 1" calcMode="spline" /><g transform="translate(127.68,39.513) scale(1,1) translate(-57.428,-14.871)"><g clip-path="url(#i4)" id="i26"><g id="i15" transform="matrix(1,0,0,1,57.428,14.871)"><path fill="#befec0" d="M57.179,-5.816C57.179,-5.816,-57.179,14.621,-57.179,14.621C-57.179,14.621,-57.179,5.815,-57.179,5.815C-57.179,5.815,57.179,-14.621,57.179,-14.621C57.179,-14.621,57.179,-5.816,57.179,-5.816Z" /></g></g></g></g></g></g></g><g id="i22"><g transform="translate(253.453,124.531)"><animateTransform repeatCount="indefinite" type="translate" attributeName="transform" dur="5s" begin="0s" calcMode="spline" values="253.453 124.531; 253.453 124.531; 155 145.711; 66.34 165.814; 66.34 165.814" keyTimes="0; 0.213333; 0.346667; 0.48; 1" keySplines="0 0 1 1; 0.221 0 0 1; 0.719 0 0 1; 0 0 1 1" fill="freeze" /><g transform="scale(1,1) translate(-32.785,-66.886)"><g opacity="0" visibility="hidden" id="i27"><animate repeatCount="indefinite" begin="0s" calcMode="discrete" dur="5s" values="hidden; visible; hidden; hidden" keyTimes="0; 0.2; 0.487; 1" attributeName="visibility" /><animate repeatCount="indefinite" attributeName="opacity" dur="5s" begin="0s" fill="freeze" values="0; 0; 1; 1; 0; 0" keyTimes="0; 0.2; 0.22; 0.393333; 0.413333; 1" keySplines="0 0 1 1; 0 0 1 1; 0 0 1 1; 0 0 1 1; 0 0 1 1" calcMode="spline" /><g transform="translate(127.68,29.25) scale(1,1) translate(-57.428,-11.945)"><g clip-path="url(#i5)" id="i28"><g id="i15" transform="matrix(1,0,0,1,57.428,11.946)"><path fill="#befec0" d="M57.179,-8.742C57.179,-8.742,-57.179,11.696,-57.179,11.696C-57.179,11.696,-57.179,8.741,-57.179,8.741C-57.179,8.741,57.179,-11.696,57.179,-11.696C57.179,-11.696,57.179,-8.742,57.179,-8.742Z" /></g></g></g></g></g></g></g><g opacity="0" visibility="hidden" id="i29"><animate repeatCount="indefinite" begin="0s" calcMode="discrete" dur="5s" values="hidden; visible; hidden; hidden" keyTimes="0; 0.2; 0.487; 1" attributeName="visibility" /><animate repeatCount="indefinite" attributeName="opacity" dur="5s" begin="0s" fill="freeze" values="0; 0; 1; 1; 0; 0" keyTimes="0; 0.2; 0.22; 0.393333; 0.413333; 1" keySplines="0 0 1 1; 0 0 1 1; 0 0 1 1; 0 0 1 1; 0 0 1 1" calcMode="spline" /><g transform="translate(252.453,124.531)"><animateTransform repeatCount="indefinite" type="translate" attributeName="transform" dur="5s" begin="0s" calcMode="spline" values="252.453 124.531; 252.453 124.531; 154 145.711; 65.34 165.814; 65.34 165.814" keyTimes="0; 0.2; 0.333333; 0.466667; 1" keySplines="0 0 1 1; 0.221 0 0 1; 0.719 0 0 1; 0 0 1 1" fill="freeze" /><g transform="scale(1,1) translate(-32.785,-66.886)"><g id="i15" transform="matrix(1,0,0,1,22.785,76.886)"><path fill="#b6fcb8" d="M-32.535,66.636C-32.535,66.636,-32.535,51.682,-32.535,51.682C-32.535,51.682,-2.141,-1.155,-2.141,-1.155C-1.69,-1.982,-0.465,-4.055,1.538,-7.383C3.539,-10.705,4.867,-13.009,5.516,-14.297C6.165,-15.582,7.079,-17.543,8.256,-20.169C9.432,-22.799,10.233,-25.211,10.657,-27.406C11.083,-29.6,11.297,-31.894,11.297,-34.286C11.297,-39.17,10.433,-42.729,8.706,-44.963C6.979,-47.197,4.313,-47.896,0.715,-47.052C-6.894,-45.345,-10.697,-38.036,-10.697,-25.125C-10.697,-25.125,-10.697,-19.965,-10.697,-19.965C-10.697,-19.965,-31.71,-16.215,-31.71,-16.215C-31.71,-16.215,-31.71,-21.524,-31.71,-21.524C-31.71,-27.208,-31.11,-32.388,-29.911,-37.061C-28.704,-41.74,-26.856,-45.994,-24.355,-49.833C-21.854,-53.669,-18.486,-56.859,-14.262,-59.409C-10.034,-61.96,-5.068,-63.743,0.637,-64.761C11.145,-66.636,19.086,-65.222,24.467,-60.524C29.845,-55.828,32.535,-48.291,32.535,-37.924C32.535,-34.385,32.213,-30.988,31.559,-27.732C30.911,-24.473,29.859,-21.223,28.409,-17.974C26.957,-14.725,25.605,-11.964,24.353,-9.697C23.104,-7.429,21.373,-4.477,19.174,-0.845C18.924,-0.45,18.736,-0.147,18.611,0.077C18.486,0.298,18.325,0.565,18.124,0.875C17.923,1.184,17.748,1.478,17.6,1.751C17.6,1.751,-7.993,45.131,-7.993,45.131C-7.993,45.131,29.305,38.474,29.305,38.474C29.305,38.474,29.305,55.596,29.305,55.596C29.305,55.596,-32.535,66.636,-32.535,66.636Z" /></g></g></g></g><g opacity="0" visibility="hidden" id="i30"><animate repeatCount="indefinite" begin="0s" calcMode="discrete" dur="5s" values="hidden; visible; hidden; hidden" keyTimes="0; 0.2; 0.487; 1" attributeName="visibility" /><animate repeatCount="indefinite" attributeName="opacity" dur="5s" begin="0s" fill="freeze" values="0; 0; 1; 1; 0; 0" keyTimes="0; 0.2; 0.22; 0.393333; 0.413333; 1" keySplines="0 0 1 1; 0 0 1 1; 0 0 1 1; 0 0 1 1; 0 0 1 1" calcMode="spline" /><g transform="translate(252.453,124.531)"><animateTransform repeatCount="indefinite" type="translate" attributeName="transform" dur="5s" begin="0s" calcMode="spline" values="252.453 124.531; 252.453 124.531; 154 145.711; 65.34 165.814; 65.34 165.814" keyTimes="0; 0.206667; 0.34; 0.473333; 1" keySplines="0 0 1 1; 0.221 0 0 1; 0.719 0 0 1; 0 0 1 1" fill="freeze" /><g transform="scale(1,1) translate(-32.785,-66.886)"><g id="i15" transform="matrix(1,0,0,1,27.785,71.886)"><path fill="#befec0" d="M-32.535,66.636C-32.535,66.636,-32.535,51.682,-32.535,51.682C-32.535,51.682,-2.141,-1.155,-2.141,-1.155C-1.69,-1.982,-0.465,-4.055,1.538,-7.383C3.539,-10.705,4.867,-13.009,5.516,-14.297C6.165,-15.582,7.079,-17.543,8.256,-20.169C9.432,-22.799,10.233,-25.211,10.657,-27.406C11.083,-29.6,11.297,-31.894,11.297,-34.286C11.297,-39.17,10.433,-42.729,8.706,-44.963C6.979,-47.197,4.313,-47.896,0.715,-47.052C-6.894,-45.345,-10.697,-38.036,-10.697,-25.125C-10.697,-25.125,-10.697,-19.965,-10.697,-19.965C-10.697,-19.965,-31.71,-16.215,-31.71,-16.215C-31.71,-16.215,-31.71,-21.524,-31.71,-21.524C-31.71,-27.208,-31.11,-32.388,-29.911,-37.061C-28.704,-41.74,-26.856,-45.994,-24.355,-49.833C-21.854,-53.669,-18.486,-56.859,-14.262,-59.409C-10.034,-61.96,-5.068,-63.743,0.637,-64.761C11.145,-66.636,19.086,-65.222,24.467,-60.524C29.845,-55.828,32.535,-48.291,32.535,-37.924C32.535,-34.385,32.213,-30.988,31.559,-27.732C30.911,-24.473,29.859,-21.223,28.409,-17.974C26.957,-14.725,25.605,-11.964,24.353,-9.697C23.104,-7.429,21.373,-4.477,19.174,-0.845C18.924,-0.45,18.736,-0.147,18.611,0.077C18.486,0.298,18.325,0.565,18.124,0.875C17.923,1.184,17.748,1.478,17.6,1.751C17.6,1.751,-7.993,45.131,-7.993,45.131C-7.993,45.131,29.305,38.474,29.305,38.474C29.305,38.474,29.305,55.596,29.305,55.596C29.305,55.596,-32.535,66.636,-32.535,66.636Z" /></g></g></g></g><g opacity="0" visibility="hidden" id="i22"><animate repeatCount="indefinite" begin="0s" calcMode="discrete" dur="5s" values="hidden; visible; hidden; hidden" keyTimes="0; 0.2; 0.487; 1" attributeName="visibility" /><animate repeatCount="indefinite" attributeName="opacity" dur="5s" begin="0s" fill="freeze" values="0; 0; 1; 1; 0; 0" keyTimes="0; 0.2; 0.22; 0.393333; 0.413333; 1" keySplines="0 0 1 1; 0 0 1 1; 0 0 1 1; 0 0 1 1; 0 0 1 1" calcMode="spline" /><g transform="translate(253.453,124.531)"><animateTransform repeatCount="indefinite" type="translate" attributeName="transform" dur="5s" begin="0s" calcMode="spline" values="253.453 124.531; 253.453 124.531; 155 145.711; 66.34 165.814; 66.34 165.814" keyTimes="0; 0.213333; 0.346667; 0.48; 1" keySplines="0 0 1 1; 0.221 0 0 1; 0.719 0 0 1; 0 0 1 1" fill="freeze" /><g transform="scale(1,1) translate(-32.785,-66.886)"><g id="i15" transform="matrix(1,0,0,1,32.785,66.886)"><path fill="#56fb5b" d="M-32.535,66.636C-32.535,66.636,-32.535,51.682,-32.535,51.682C-32.535,51.682,-2.141,-1.155,-2.141,-1.155C-1.69,-1.982,-0.465,-4.055,1.538,-7.383C3.539,-10.705,4.867,-13.009,5.516,-14.297C6.165,-15.582,7.079,-17.543,8.256,-20.169C9.432,-22.799,10.233,-25.211,10.657,-27.406C11.083,-29.6,11.297,-31.894,11.297,-34.286C11.297,-39.17,10.433,-42.729,8.706,-44.963C6.979,-47.197,4.313,-47.896,0.715,-47.052C-6.894,-45.345,-10.697,-38.036,-10.697,-25.125C-10.697,-25.125,-10.697,-19.965,-10.697,-19.965C-10.697,-19.965,-31.71,-16.215,-31.71,-16.215C-31.71,-16.215,-31.71,-21.524,-31.71,-21.524C-31.71,-27.208,-31.11,-32.388,-29.911,-37.061C-28.704,-41.74,-26.856,-45.994,-24.355,-49.833C-21.854,-53.669,-18.486,-56.859,-14.262,-59.409C-10.034,-61.96,-5.068,-63.743,0.637,-64.761C11.145,-66.636,19.086,-65.222,24.467,-60.524C29.845,-55.828,32.535,-48.291,32.535,-37.924C32.535,-34.385,32.213,-30.988,31.559,-27.732C30.911,-24.473,29.859,-21.223,28.409,-17.974C26.957,-14.725,25.605,-11.964,24.353,-9.697C23.104,-7.429,21.373,-4.477,19.174,-0.845C18.924,-0.45,18.736,-0.147,18.611,0.077C18.486,0.298,18.325,0.565,18.124,0.875C17.923,1.184,17.748,1.478,17.6,1.751C17.6,1.751,-7.993,45.131,-7.993,45.131C-7.993,45.131,29.305,38.474,29.305,38.474C29.305,38.474,29.305,55.596,29.305,55.596C29.305,55.596,-32.535,66.636,-32.535,66.636Z" /></g></g></g></g><g id="i31"><g transform="translate(253.453,124.531)"><animateTransform repeatCount="indefinite" type="translate" attributeName="transform" dur="5s" begin="0s" calcMode="spline" values="253.453 124.531; 253.453 124.531; 148.474 146.18; 57.752 165.252; 57.752 165.252" keyTimes="0; 0.413333; 0.546667; 0.68; 1" keySplines="0 0 1 1; 0.221 0 0 1; 0.709 0 0 1; 0 0 1 1" fill="freeze" /><g transform="scale(1,1) translate(-21.618,-66.274)"><g opacity="0" visibility="hidden" id="i32"><animate repeatCount="indefinite" begin="0s" calcMode="discrete" dur="5s" values="hidden; visible; hidden; hidden" keyTimes="0; 0.4; 0.687; 1" attributeName="visibility" /><animate repeatCount="indefinite" attributeName="opacity" dur="5s" begin="0s" fill="freeze" values="0; 0; 1; 1; 0; 0" keyTimes="0; 0.4; 0.42; 0.593333; 0.613333; 1" keySplines="0 0 1 1; 0 0 1 1; 0 0 1 1; 0 0 1 1; 0 0 1 1" calcMode="spline" /><g transform="translate(111.448,73.066) scale(1,1) translate(-57.428,-11.946)"><g clip-path="url(#i6)" id="i33"><g id="i15" transform="matrix(1,0,0,1,57.428,11.946)"><path fill="#befec0" d="M57.179,-8.741C57.179,-8.741,-57.179,11.696,-57.179,11.696C-57.179,11.696,-57.179,8.741,-57.179,8.741C-57.179,8.741,57.179,-11.696,57.179,-11.696C57.179,-11.696,57.179,-8.741,57.179,-8.741Z" /></g></g></g></g></g></g></g><g id="i31"><g transform="translate(253.453,124.531)"><animateTransform repeatCount="indefinite" type="translate" attributeName="transform" dur="5s" begin="0s" calcMode="spline" values="253.453 124.531; 253.453 124.531; 148.474 146.18; 57.752 165.252; 57.752 165.252" keyTimes="0; 0.413333; 0.546667; 0.68; 1" keySplines="0 0 1 1; 0.221 0 0 1; 0.709 0 0 1; 0 0 1 1" fill="freeze" /><g transform="scale(1,1) translate(-21.618,-66.274)"><g opacity="0" visibility="hidden" id="i34"><animate repeatCount="indefinite" begin="0s" calcMode="discrete" dur="5s" values="hidden; visible; hidden; hidden" keyTimes="0; 0.4; 0.687; 1" attributeName="visibility" /><animate repeatCount="indefinite" attributeName="opacity" dur="5s" begin="0s" fill="freeze" values="0; 0; 1; 1; 0; 0" keyTimes="0; 0.4; 0.42; 0.593333; 0.613333; 1" keySplines="0 0 1 1; 0 0 1 1; 0 0 1 1; 0 0 1 1; 0 0 1 1" calcMode="spline" /><g transform="translate(111.448,43.76) scale(1,1) translate(-57.428,-14.871)"><g clip-path="url(#i7)" id="i35"><g id="i15" transform="matrix(1,0,0,1,57.428,14.871)"><path fill="#befec0" d="M57.179,-5.816C57.179,-5.816,-57.179,14.621,-57.179,14.621C-57.179,14.621,-57.179,5.815,-57.179,5.815C-57.179,5.815,57.179,-14.621,57.179,-14.621C57.179,-14.621,57.179,-5.816,57.179,-5.816Z" /></g></g></g></g></g></g></g><g id="i31"><g transform="translate(253.453,124.531)"><animateTransform repeatCount="indefinite" type="translate" attributeName="transform" dur="5s" begin="0s" calcMode="spline" values="253.453 124.531; 253.453 124.531; 148.474 146.18; 57.752 165.252; 57.752 165.252" keyTimes="0; 0.413333; 0.546667; 0.68; 1" keySplines="0 0 1 1; 0.221 0 0 1; 0.709 0 0 1; 0 0 1 1" fill="freeze" /><g transform="scale(1,1) translate(-21.618,-66.274)"><g opacity="0" visibility="hidden" id="i36"><animate repeatCount="indefinite" begin="0s" calcMode="discrete" dur="5s" values="hidden; visible; hidden; hidden" keyTimes="0; 0.4; 0.687; 1" attributeName="visibility" /><animate repeatCount="indefinite" attributeName="opacity" dur="5s" begin="0s" fill="freeze" values="0; 0; 1; 1; 0; 0" keyTimes="0; 0.4; 0.42; 0.593333; 0.613333; 1" keySplines="0 0 1 1; 0 0 1 1; 0 0 1 1; 0 0 1 1; 0 0 1 1" calcMode="spline" /><g transform="translate(111.448,33.497) scale(1,1) translate(-57.428,-11.945)"><g clip-path="url(#i8)" id="i37"><g id="i15" transform="matrix(1,0,0,1,57.428,11.946)"><path fill="#befec0" d="M57.179,-8.742C57.179,-8.742,-57.179,11.696,-57.179,11.696C-57.179,11.696,-57.179,8.741,-57.179,8.741C-57.179,8.741,57.179,-11.696,57.179,-11.696C57.179,-11.696,57.179,-8.742,57.179,-8.742Z" /></g></g></g></g></g></g></g><g opacity="0" visibility="hidden" id="i38"><animate repeatCount="indefinite" begin="0s" calcMode="discrete" dur="5s" values="hidden; visible; hidden; hidden" keyTimes="0; 0.4; 0.687; 1" attributeName="visibility" /><animate repeatCount="indefinite" attributeName="opacity" dur="5s" begin="0s" fill="freeze" values="0; 0; 1; 1; 0; 0" keyTimes="0; 0.4; 0.42; 0.593333; 0.613333; 1" keySplines="0 0 1 1; 0 0 1 1; 0 0 1 1; 0 0 1 1; 0 0 1 1" calcMode="spline" /><g transform="translate(253.453,124.531)"><animateTransform repeatCount="indefinite" type="translate" attributeName="transform" dur="5s" begin="0s" calcMode="spline" values="253.453 124.531; 253.453 124.531; 148.474 146.18; 57.752 165.252; 57.752 165.252" keyTimes="0; 0.4; 0.533333; 0.666667; 1" keySplines="0 0 1 1; 0.221 0 0 1; 0.709 0 0 1; 0 0 1 1" fill="freeze" /><g transform="scale(1,1) translate(-21.618,-66.274)"><g id="i15" transform="matrix(1,0,0,1,9.618,76.274)"><path fill="#b6fcb8" d="M-0.661,66.024C-0.661,66.024,-0.661,-37.291,-0.661,-37.291C-0.661,-37.291,-21.368,-28.11,-21.368,-28.11C-21.368,-28.11,-21.368,-44.489,-21.368,-44.489C-8.183,-51.218,0.453,-57.399,4.536,-63.021C4.536,-63.021,21.368,-66.024,21.368,-66.024C21.368,-66.024,21.368,62.087,21.368,62.087C21.368,62.087,-0.661,66.024,-0.661,66.024Z" /></g></g></g></g><g opacity="0" visibility="hidden" id="i39"><animate repeatCount="indefinite" begin="0s" calcMode="discrete" dur="5s" values="hidden; visible; hidden; hidden" keyTimes="0; 0.4; 0.687; 1" attributeName="visibility" /><animate repeatCount="indefinite" attributeName="opacity" dur="5s" begin="0s" fill="freeze" values="0; 0; 1; 1; 0; 0" keyTimes="0; 0.4; 0.42; 0.593333; 0.613333; 1" keySplines="0 0 1 1; 0 0 1 1; 0 0 1 1; 0 0 1 1; 0 0 1 1" calcMode="spline" /><g transform="translate(253.453,124.531)"><animateTransform repeatCount="indefinite" type="translate" attributeName="transform" dur="5s" begin="0s" calcMode="spline" values="253.453 124.531; 253.453 124.531; 148.474 146.18; 57.752 165.252; 57.752 165.252" keyTimes="0; 0.406667; 0.54; 0.673333; 1" keySplines="0 0 1 1; 0.221 0 0 1; 0.709 0 0 1; 0 0 1 1" fill="freeze" /><g transform="scale(1,1) translate(-21.618,-66.274)"><g id="i15" transform="matrix(1,0,0,1,15.618,71.274)"><path fill="#befec0" d="M-0.661,66.024C-0.661,66.024,-0.661,-37.291,-0.661,-37.291C-0.661,-37.291,-21.368,-28.11,-21.368,-28.11C-21.368,-28.11,-21.368,-44.489,-21.368,-44.489C-8.183,-51.218,0.453,-57.399,4.536,-63.021C4.536,-63.021,21.368,-66.024,21.368,-66.024C21.368,-66.024,21.368,62.087,21.368,62.087C21.368,62.087,-0.661,66.024,-0.661,66.024Z" /></g></g></g></g><g opacity="0" visibility="hidden" id="i31"><animate repeatCount="indefinite" begin="0s" calcMode="discrete" dur="5s" values="hidden; visible; hidden; hidden" keyTimes="0; 0.4; 0.687; 1" attributeName="visibility" /><animate repeatCount="indefinite" attributeName="opacity" dur="5s" begin="0s" fill="freeze" values="0; 0; 1; 1; 0; 0" keyTimes="0; 0.4; 0.42; 0.593333; 0.613333; 1" keySplines="0 0 1 1; 0 0 1 1; 0 0 1 1; 0 0 1 1; 0 0 1 1" calcMode="spline" /><g transform="translate(253.453,124.531)"><animateTransform repeatCount="indefinite" type="translate" attributeName="transform" dur="5s" begin="0s" calcMode="spline" values="253.453 124.531; 253.453 124.531; 148.474 146.18; 57.752 165.252; 57.752 165.252" keyTimes="0; 0.413333; 0.546667; 0.68; 1" keySplines="0 0 1 1; 0.221 0 0 1; 0.709 0 0 1; 0 0 1 1" fill="freeze" /><g transform="scale(1,1) translate(-21.618,-66.274)"><g id="i15" transform="matrix(1,0,0,1,21.618,66.274)"><path fill="#56fb5b" d="M-0.661,66.024C-0.661,66.024,-0.661,-37.291,-0.661,-37.291C-0.661,-37.291,-21.368,-28.11,-21.368,-28.11C-21.368,-28.11,-21.368,-44.489,-21.368,-44.489C-8.183,-51.218,0.453,-57.399,4.536,-63.021C4.536,-63.021,21.368,-66.024,21.368,-66.024C21.368,-66.024,21.368,62.087,21.368,62.087C21.368,62.087,-0.661,66.024,-0.661,66.024Z" /></g></g></g></g><g id="i40"><g transform="translate(206.031,130.716)"><animateTransform repeatCount="indefinite" type="translate" attributeName="transform" dur="5s" begin="0s" calcMode="spline" values="206.031 130.716; 206.031 130.716; 153.376 144.118; 153.376 144.118" keyTimes="0; 0.606667; 0.74; 1" keySplines="0 0 1 1; 0.221 0 0 1; 0 0 1 1" fill="freeze" /><g transform="scale(1,1) translate(-87.285,-73.283)"><g opacity="0" visibility="hidden" id="i41"><animate repeatCount="indefinite" begin="0s" calcMode="discrete" dur="5s" values="hidden; visible; visible" keyTimes="0; 0.6; 1" attributeName="visibility" /><animate repeatCount="indefinite" attributeName="opacity" dur="5s" begin="0s" fill="freeze" values="0; 0; 1; 1" keyTimes="0; 0.6; 0.62; 1" keySplines="0 0 1 1; 0 0 1 1; 0 0 1 1" calcMode="spline" /><g transform="translate(88.434,151.269) scale(1,1) translate(-57.428,-11.946)"><g clip-path="url(#i9)" id="i42"><g id="i15" transform="matrix(1,0,0,1,57.428,11.946)"><path fill="#befec0" d="M57.179,-8.741C57.179,-8.741,-57.179,11.696,-57.179,11.696C-57.179,11.696,-57.179,8.741,-57.179,8.741C-57.179,8.741,57.179,-11.696,57.179,-11.696C57.179,-11.696,57.179,-8.741,57.179,-8.741Z" /></g></g></g></g></g></g></g><g id="i40"><g transform="translate(206.031,130.716)"><animateTransform repeatCount="indefinite" type="translate" attributeName="transform" dur="5s" begin="0s" calcMode="spline" values="206.031 130.716; 206.031 130.716; 153.376 144.118; 153.376 144.118" keyTimes="0; 0.606667; 0.74; 1" keySplines="0 0 1 1; 0.221 0 0 1; 0 0 1 1" fill="freeze" /><g transform="scale(1,1) translate(-87.285,-73.283)"><g opacity="0" visibility="hidden" id="i43"><animate repeatCount="indefinite" begin="0s" calcMode="discrete" dur="5s" values="hidden; visible; visible" keyTimes="0; 0.6; 1" attributeName="visibility" /><animate repeatCount="indefinite" attributeName="opacity" dur="5s" begin="0s" fill="freeze" values="0; 0; 1; 1" keyTimes="0; 0.6; 0.62; 1" keySplines="0 0 1 1; 0 0 1 1; 0 0 1 1" calcMode="spline" /><g transform="translate(130.649,-9.432) scale(1,1) translate(-57.428,-14.871)"><g clip-path="url(#i10)" id="i44"><g id="i15" transform="matrix(1,0,0,1,57.428,14.871)"><path fill="#befec0" d="M57.179,-5.816C57.179,-5.816,-57.179,14.621,-57.179,14.621C-57.179,14.621,-57.179,5.815,-57.179,5.815C-57.179,5.815,57.179,-14.621,57.179,-14.621C57.179,-14.621,57.179,-5.816,57.179,-5.816Z" /></g></g></g></g></g></g></g><g id="i40"><g transform="translate(206.031,130.716)"><animateTransform repeatCount="indefinite" type="translate" attributeName="transform" dur="5s" begin="0s" calcMode="spline" values="206.031 130.716; 206.031 130.716; 153.376 144.118; 153.376 144.118" keyTimes="0; 0.606667; 0.74; 1" keySplines="0 0 1 1; 0.221 0 0 1; 0 0 1 1" fill="freeze" /><g transform="scale(1,1) translate(-87.285,-73.283)"><g opacity="0" visibility="hidden" id="i45"><animate repeatCount="indefinite" begin="0s" calcMode="discrete" dur="5s" values="hidden; visible; visible" keyTimes="0; 0.6; 1" attributeName="visibility" /><animate repeatCount="indefinite" attributeName="opacity" dur="5s" begin="0s" fill="freeze" values="0; 0; 1; 1" keyTimes="0; 0.6; 0.62; 1" keySplines="0 0 1 1; 0 0 1 1; 0 0 1 1" calcMode="spline" /><g transform="translate(82.899,-10.945) scale(1,1) translate(-57.428,-11.945)"><g clip-path="url(#i11)" id="i46"><g id="i15" transform="matrix(1,0,0,1,57.428,11.946)"><path fill="#befec0" d="M57.179,-8.742C57.179,-8.742,-57.179,11.696,-57.179,11.696C-57.179,11.696,-57.179,8.741,-57.179,8.741C-57.179,8.741,57.179,-11.696,57.179,-11.696C57.179,-11.696,57.179,-8.742,57.179,-8.742Z" /></g></g></g></g></g></g></g><g opacity="0" visibility="hidden" id="i47"><animate repeatCount="indefinite" begin="0s" calcMode="discrete" dur="5s" values="hidden; visible; visible" keyTimes="0; 0.6; 1" attributeName="visibility" /><animate repeatCount="indefinite" attributeName="opacity" dur="5s" begin="0s" fill="freeze" values="0; 0; 1; 1" keyTimes="0; 0.6; 0.62; 1" keySplines="0 0 1 1; 0 0 1 1; 0 0 1 1" calcMode="spline" /><g transform="translate(206.031,130.716)"><animateTransform repeatCount="indefinite" type="translate" attributeName="transform" dur="5s" begin="0s" calcMode="spline" values="206.031 130.716; 206.031 130.716; 153.376 144.118; 153.376 144.118" keyTimes="0; 0.6; 0.733333; 1" keySplines="0 0 1 1; 0.221 0 0 1; 0 0 1 1" fill="freeze" /><g transform="scale(1,1) translate(-87.285,-73.283)"><g id="i48" transform="matrix(1,0,0,1,25.811,91.701)"><path fill="#50c154" d="M14.226,-33.497C13.722,-35.757,12.905,-37.762,11.785,-39.515C10.663,-41.264,9.231,-42.621,7.493,-43.58C5.751,-44.539,3.647,-44.786,1.18,-44.317C-4.657,-43.207,-8.865,-39.152,-11.448,-32.154C-14.03,-25.152,-15.318,-14.135,-15.318,0.904C-15.318,8.086,-15.095,14.555,-14.646,20.304C-14.199,26.056,-13.382,30.868,-12.204,34.739C-11.026,38.614,-9.342,41.433,-7.154,43.207C-4.965,44.978,-2.132,45.535,1.347,44.875C2.804,44.597,4.403,43.902,6.146,42.784C7.884,41.67,9.513,40.182,11.027,38.32C12.542,36.462,13.806,34.232,14.815,31.625C15.825,29.022,16.33,26.093,16.33,22.836C16.33,22.836,16.33,10.546,16.33,10.546C16.33,10.546,0.338,13.585,0.338,13.585C0.338,13.585,0.338,-4.26,0.338,-4.26C0.338,-4.26,39.561,-11.712,39.561,-11.712C39.561,-11.712,39.561,53.101,39.561,53.101C39.561,53.101,21.717,56.492,21.717,56.492C21.717,56.492,21.717,45.381,21.717,45.381C21.717,45.381,21.382,45.444,21.382,45.444C18.461,50.713,14.955,54.72,10.858,57.461C6.761,60.202,1.853,62.119,-3.87,63.207C-11.278,64.614,-17.313,64.468,-21.968,62.771C-26.626,61.076,-30.276,57.784,-32.91,52.898C-35.549,48.013,-37.318,41.699,-38.214,33.957C-39.112,26.214,-39.561,17.125,-39.561,6.688C-39.561,-3.413,-38.917,-12.399,-37.625,-20.278C-36.337,-28.154,-34.117,-34.942,-30.976,-40.648C-27.835,-46.351,-23.681,-50.984,-18.517,-54.547C-13.357,-58.109,-6.901,-60.627,0.842,-62.099C14.083,-64.614,23.624,-63.144,29.462,-57.687C35.295,-52.23,38.216,-43.384,38.216,-31.153C38.216,-31.153,14.984,-26.739,14.984,-26.739C14.984,-28.983,14.731,-31.236,14.226,-33.497Z" /></g><g id="i15" transform="matrix(1,0,0,1,119.413,74.182)"><path fill="#50c154" fill-rule="evenodd" d="M-39.646,-17.382C-38.805,-25.228,-36.952,-32.174,-34.09,-38.218C-31.227,-44.26,-27.105,-49.336,-21.717,-53.447C-16.33,-57.557,-9.091,-60.477,-0.001,-62.204C9.09,-63.932,16.328,-63.763,21.716,-61.7C27.102,-59.635,31.229,-56.127,34.089,-51.173C36.952,-46.216,38.803,-39.973,39.646,-32.448C40.486,-24.92,40.908,-16.611,40.908,-7.519C40.908,1.684,40.486,10.181,39.646,17.973C38.803,25.767,36.952,32.682,34.089,38.724C31.229,44.769,27.102,49.761,21.716,53.701C16.328,57.641,9.09,60.477,-0.001,62.204C-9.091,63.932,-16.33,63.847,-21.717,61.953C-27.105,60.061,-31.227,56.635,-34.09,51.679C-36.952,46.725,-38.805,40.512,-39.646,33.037C-40.489,25.567,-40.908,17.229,-40.908,8.025C-40.908,-1.065,-40.489,-9.534,-39.646,-17.382ZM-16.077,23.931C-15.685,29.523,-14.899,33.974,-13.721,37.286C-12.544,40.598,-10.859,42.862,-8.671,44.07C-6.482,45.284,-3.595,45.546,-0.001,44.865C3.588,44.182,6.481,42.821,8.668,40.777C10.858,38.735,12.541,35.832,13.72,32.073C14.898,28.314,15.683,23.564,16.076,17.821C16.468,12.08,16.666,5.167,16.666,-2.913C16.666,-10.993,16.468,-17.801,16.076,-23.34C15.683,-28.876,14.898,-33.327,13.72,-36.697C12.541,-40.062,10.858,-42.353,8.668,-43.566C6.481,-44.775,3.588,-45.041,-0.001,-44.359C-3.595,-43.675,-6.482,-42.312,-8.671,-40.271C-10.859,-38.226,-12.544,-35.296,-13.721,-31.483C-14.899,-27.665,-15.685,-22.915,-16.077,-17.231C-16.472,-11.542,-16.667,-4.66,-16.667,3.42C-16.667,11.499,-16.472,18.338,-16.077,23.931Z" /></g></g></g></g><g opacity="0" visibility="hidden" id="i40"><animate repeatCount="indefinite" begin="0s" calcMode="discrete" dur="5s" values="hidden; visible; visible" keyTimes="0; 0.6; 1" attributeName="visibility" /><animate repeatCount="indefinite" attributeName="opacity" dur="5s" begin="0s" fill="freeze" values="0; 0; 1; 1" keyTimes="0; 0.6; 0.62; 1" keySplines="0 0 1 1; 0 0 1 1; 0 0 1 1" calcMode="spline" /><g transform="translate(206.031,130.716)"><animateTransform repeatCount="indefinite" type="translate" attributeName="transform" dur="5s" begin="0s" calcMode="spline" values="206.031 130.716; 206.031 130.716; 153.376 144.118; 153.376 144.118" keyTimes="0; 0.606667; 0.74; 1" keySplines="0 0 1 1; 0.221 0 0 1; 0 0 1 1" fill="freeze" /><g transform="scale(1,1) translate(-87.285,-73.283)"><g id="i48" transform="matrix(1,0,0,1,32.811,86.701)"><path fill="#befec0" d="M14.226,-33.497C13.722,-35.757,12.905,-37.762,11.785,-39.515C10.663,-41.264,9.231,-42.621,7.493,-43.58C5.751,-44.539,3.647,-44.786,1.18,-44.317C-4.657,-43.207,-8.865,-39.152,-11.448,-32.154C-14.03,-25.152,-15.318,-14.135,-15.318,0.904C-15.318,8.086,-15.095,14.555,-14.646,20.304C-14.199,26.056,-13.382,30.868,-12.204,34.739C-11.026,38.614,-9.342,41.433,-7.154,43.207C-4.965,44.978,-2.132,45.535,1.347,44.875C2.804,44.597,4.403,43.902,6.146,42.784C7.884,41.67,9.513,40.182,11.027,38.32C12.542,36.462,13.806,34.232,14.815,31.625C15.825,29.022,16.33,26.093,16.33,22.836C16.33,22.836,16.33,10.546,16.33,10.546C16.33,10.546,0.338,13.585,0.338,13.585C0.338,13.585,0.338,-4.26,0.338,-4.26C0.338,-4.26,39.561,-11.712,39.561,-11.712C39.561,-11.712,39.561,53.101,39.561,53.101C39.561,53.101,21.717,56.492,21.717,56.492C21.717,56.492,21.717,45.381,21.717,45.381C21.717,45.381,21.382,45.444,21.382,45.444C18.461,50.713,14.955,54.72,10.858,57.461C6.761,60.202,1.853,62.119,-3.87,63.207C-11.278,64.614,-17.313,64.468,-21.968,62.771C-26.626,61.076,-30.276,57.784,-32.91,52.898C-35.549,48.013,-37.318,41.699,-38.214,33.957C-39.112,26.214,-39.561,17.125,-39.561,6.688C-39.561,-3.413,-38.917,-12.399,-37.625,-20.278C-36.337,-28.154,-34.117,-34.942,-30.976,-40.648C-27.835,-46.351,-23.681,-50.984,-18.517,-54.547C-13.357,-58.109,-6.901,-60.627,0.842,-62.099C14.083,-64.614,23.624,-63.144,29.462,-57.687C35.295,-52.23,38.216,-43.384,38.216,-31.153C38.216,-31.153,14.984,-26.739,14.984,-26.739C14.984,-28.983,14.731,-31.236,14.226,-33.497Z" /></g><g id="i15" transform="matrix(1,0,0,1,126.413,69.182)"><path fill="#befec0" fill-rule="evenodd" d="M-39.646,-17.382C-38.805,-25.228,-36.952,-32.174,-34.09,-38.218C-31.227,-44.26,-27.105,-49.336,-21.717,-53.447C-16.33,-57.557,-9.091,-60.477,-0.001,-62.204C9.09,-63.932,16.328,-63.763,21.716,-61.7C27.102,-59.635,31.229,-56.127,34.089,-51.173C36.952,-46.216,38.803,-39.973,39.646,-32.448C40.486,-24.92,40.908,-16.611,40.908,-7.519C40.908,1.684,40.486,10.181,39.646,17.973C38.803,25.767,36.952,32.682,34.089,38.724C31.229,44.769,27.102,49.761,21.716,53.701C16.328,57.641,9.09,60.477,-0.001,62.204C-9.091,63.932,-16.33,63.847,-21.717,61.953C-27.105,60.061,-31.227,56.635,-34.09,51.679C-36.952,46.725,-38.805,40.512,-39.646,33.037C-40.489,25.567,-40.908,17.229,-40.908,8.025C-40.908,-1.065,-40.489,-9.534,-39.646,-17.382ZM-16.077,23.931C-15.685,29.523,-14.899,33.974,-13.721,37.286C-12.544,40.598,-10.859,42.862,-8.671,44.07C-6.482,45.284,-3.595,45.546,-0.001,44.865C3.588,44.182,6.481,42.821,8.668,40.777C10.858,38.735,12.541,35.832,13.72,32.073C14.898,28.314,15.683,23.564,16.076,17.821C16.468,12.08,16.666,5.167,16.666,-2.913C16.666,-10.993,16.468,-17.801,16.076,-23.34C15.683,-28.876,14.898,-33.327,13.72,-36.697C12.541,-40.062,10.858,-42.353,8.668,-43.566C6.481,-44.775,3.588,-45.041,-0.001,-44.359C-3.595,-43.675,-6.482,-42.312,-8.671,-40.271C-10.859,-38.226,-12.544,-35.296,-13.721,-31.483C-14.899,-27.665,-15.685,-22.915,-16.077,-17.231C-16.472,-11.542,-16.667,-4.66,-16.667,3.42C-16.667,11.499,-16.472,18.338,-16.077,23.931Z" /></g></g></g></g><g opacity="0" visibility="hidden" id="i49"><animate repeatCount="indefinite" begin="0s" calcMode="discrete" dur="5s" values="hidden; visible; visible" keyTimes="0; 0.6; 1" attributeName="visibility" /><animate repeatCount="indefinite" attributeName="opacity" dur="5s" begin="0s" fill="freeze" values="0; 0; 1; 1" keyTimes="0; 0.6; 0.62; 1" keySplines="0 0 1 1; 0 0 1 1; 0 0 1 1" calcMode="spline" /><g transform="translate(206.031,130.716)"><animateTransform repeatCount="indefinite" type="translate" attributeName="transform" dur="5s" begin="0s" calcMode="spline" values="206.031 130.716; 206.031 130.716; 153.376 144.118; 153.376 144.118" keyTimes="0; 0.613333; 0.746667; 1" keySplines="0 0 1 1; 0.221 0 0 1; 0 0 1 1" fill="freeze" /><g transform="scale(1,1) translate(-87.285,-73.283)"><g id="i48" transform="matrix(1,0,0,1,39.811,81.701)"><path fill="#56fb5b" d="M14.226,-33.497C13.722,-35.757,12.905,-37.762,11.785,-39.515C10.663,-41.264,9.231,-42.621,7.493,-43.58C5.751,-44.539,3.647,-44.786,1.18,-44.317C-4.657,-43.207,-8.865,-39.152,-11.448,-32.154C-14.03,-25.152,-15.318,-14.135,-15.318,0.904C-15.318,8.086,-15.095,14.555,-14.646,20.304C-14.199,26.056,-13.382,30.868,-12.204,34.739C-11.026,38.614,-9.342,41.433,-7.154,43.207C-4.965,44.978,-2.132,45.535,1.347,44.875C2.804,44.597,4.403,43.902,6.146,42.784C7.884,41.67,9.513,40.182,11.027,38.32C12.542,36.462,13.806,34.232,14.815,31.625C15.825,29.022,16.33,26.093,16.33,22.836C16.33,22.836,16.33,10.546,16.33,10.546C16.33,10.546,0.338,13.585,0.338,13.585C0.338,13.585,0.338,-4.26,0.338,-4.26C0.338,-4.26,39.561,-11.712,39.561,-11.712C39.561,-11.712,39.561,53.101,39.561,53.101C39.561,53.101,21.717,56.492,21.717,56.492C21.717,56.492,21.717,45.381,21.717,45.381C21.717,45.381,21.382,45.444,21.382,45.444C18.461,50.713,14.955,54.72,10.858,57.461C6.761,60.202,1.853,62.119,-3.87,63.207C-11.278,64.614,-17.313,64.468,-21.968,62.771C-26.626,61.076,-30.276,57.784,-32.91,52.898C-35.549,48.013,-37.318,41.699,-38.214,33.957C-39.112,26.214,-39.561,17.125,-39.561,6.688C-39.561,-3.413,-38.917,-12.399,-37.625,-20.278C-36.337,-28.154,-34.117,-34.942,-30.976,-40.648C-27.835,-46.351,-23.681,-50.984,-18.517,-54.547C-13.357,-58.109,-6.901,-60.627,0.842,-62.099C14.083,-64.614,23.624,-63.144,29.462,-57.687C35.295,-52.23,38.216,-43.384,38.216,-31.153C38.216,-31.153,14.984,-26.739,14.984,-26.739C14.984,-28.983,14.731,-31.236,14.226,-33.497Z" /></g><g id="i15" transform="matrix(1,0,0,1,133.413,64.182)"><path fill="#56fb5b" fill-rule="evenodd" d="M-39.646,-17.382C-38.805,-25.228,-36.952,-32.174,-34.09,-38.218C-31.227,-44.26,-27.105,-49.336,-21.717,-53.447C-16.33,-57.557,-9.091,-60.477,-0.001,-62.204C9.09,-63.932,16.328,-63.763,21.716,-61.7C27.102,-59.635,31.229,-56.127,34.089,-51.173C36.952,-46.216,38.803,-39.973,39.646,-32.448C40.486,-24.92,40.908,-16.611,40.908,-7.519C40.908,1.684,40.486,10.181,39.646,17.973C38.803,25.767,36.952,32.682,34.089,38.724C31.229,44.769,27.102,49.761,21.716,53.701C16.328,57.641,9.09,60.477,-0.001,62.204C-9.091,63.932,-16.33,63.847,-21.717,61.953C-27.105,60.061,-31.227,56.635,-34.09,51.679C-36.952,46.725,-38.805,40.512,-39.646,33.037C-40.489,25.567,-40.908,17.229,-40.908,8.025C-40.908,-1.065,-40.489,-9.534,-39.646,-17.382ZM-16.077,23.931C-15.685,29.523,-14.899,33.974,-13.721,37.286C-12.544,40.598,-10.859,42.862,-8.671,44.07C-6.482,45.284,-3.595,45.546,-0.001,44.865C3.588,44.182,6.481,42.821,8.668,40.777C10.858,38.735,12.541,35.832,13.72,32.073C14.898,28.314,15.683,23.564,16.076,17.821C16.468,12.08,16.666,5.167,16.666,-2.913C16.666,-10.993,16.468,-17.801,16.076,-23.34C15.683,-28.876,14.898,-33.327,13.72,-36.697C12.541,-40.062,10.858,-42.353,8.668,-43.566C6.481,-44.775,3.588,-45.041,-0.001,-44.359C-3.595,-43.675,-6.482,-42.312,-8.671,-40.271C-10.859,-38.226,-12.544,-35.296,-13.721,-31.483C-14.899,-27.665,-15.685,-22.915,-16.077,-17.231C-16.472,-11.542,-16.667,-4.66,-16.667,3.42C-16.667,11.499,-16.472,18.338,-16.077,23.931Z" /></g></g></g></g></svg>